<?xml version="1.0" standalone="no"?>
<!DOCTYPE svg PUBLIC "-//W3C//DTD SVG 20010904//EN"
 "http://www.w3.org/TR/2001/REC-SVG-20010904/DTD/svg10.dtd">
<svg version="1.0" xmlns="http://www.w3.org/2000/svg"
 width="120.000000pt" height="120.000000pt" viewBox="0 0 120.000000 120.000000"
 preserveAspectRatio="xMidYMid meet">

<g transform="translate(0.000000,120.000000) scale(0.100000,-0.100000)"
fill="#000000" stroke="none">
<path d="M345 1040 c-4 -16 -5 -47 -4 -67 2 -25 -6 -54 -21 -83 -19 -36 -24
-59 -23 -115 1 -38 8 -86 16 -105 28 -63 97 -113 176 -126 23 -4 41 -8 41 -10
0 -15 -45 -74 -57 -74 -9 0 -11 -5 -7 -12 5 -8 1 -8 -10 1 -14 12 -19 12 -25
2 -6 -9 -10 -8 -15 5 -6 16 -8 16 -16 4 -8 -12 -10 -12 -10 4 0 12 -5 16 -14
13 -10 -4 -13 -1 -9 9 3 7 0 14 -6 14 -6 0 -11 7 -11 15 0 15 -59 46 -73 38
-4 -2 7 -20 25 -40 101 -109 92 -103 148 -103 l52 0 -4 -60 c-3 -45 -10 -66
-28 -85 l-23 -25 29 0 c17 0 40 9 52 20 19 18 22 31 22 105 0 47 4 85 9 85 11
0 2 -212 -10 -225 -28 -30 21 -35 51 -5 18 18 20 33 20 141 0 87 3 118 11 113
8 -5 10 -34 6 -95 -4 -48 -4 -102 0 -119 7 -35 44 -65 69 -56 16 6 16 8 0 24
-13 15 -16 40 -16 121 0 66 4 100 10 96 6 -3 10 -44 10 -90 0 -75 2 -85 22
-99 23 -17 68 -22 68 -8 0 4 -9 15 -20 25 -17 14 -20 29 -20 106 0 86 -13 141
-32 141 -5 0 -6 5 -3 10 3 6 16 10 27 10 46 0 105 27 143 65 46 45 49 56 49
177 1 76 -2 90 -23 118 -17 24 -24 47 -25 89 -4 89 -16 97 -96 60 -38 -18 -67
-21 -180 -23 -122 -1 -139 1 -181 21 -65 32 -86 30 -94 -7z m453 -229 c8 -1
27 -15 43 -32 25 -27 29 -39 29 -86 0 -51 -3 -59 -35 -89 -43 -40 -84 -48
-237 -42 -127 4 -166 18 -198 71 -40 64 -12 158 50 174 24 6 272 9 348 4z"/>
<path d="M493 737 c5 -12 1 -20 -12 -25 -14 -5 -17 -12 -10 -29 9 -25 28 -30
47 -11 18 18 14 43 -10 64 -20 17 -21 18 -15 1z"/>
<path d="M750 744 c0 -4 8 -13 18 -20 15 -11 14 -12 -10 -10 -21 3 -28 -1 -28
-14 0 -23 26 -44 45 -36 18 7 20 57 3 74 -13 13 -28 16 -28 6z"/>
</g>
</svg>
